<svg width="182" height="27" viewBox="0 0 182 27" fill="none" xmlns="http://www.w3.org/2000/svg">
<path d="M4.49114 20.0966H8.57241V11.934H4.49114V20.0966ZM10.613 20.0966H14.6943V5.81212H10.613V20.0966ZM16.735 20.0966H20.8162V13.9747H16.735V20.0966ZM2.4505 22.1372V9.89339H8.57241V3.77148H16.735V11.934H22.8569V22.1372H2.4505Z" fill="url(#paint0_linear_6_284)"/>
<path d="M40.1962 17.8418V20.9893H29.3208V4.71152H32.9851V17.8418H40.1962Z" fill="white"/>
<path d="M42.5562 20.9893V4.71152H53.549V7.78856H46.2205V10.983H52.7269V13.9896H46.2205V17.9123H54.0893V20.9893H42.5562Z" fill="white"/>
<path d="M67.6998 20.9893C67.5275 20.4256 67.3318 19.8462 67.1126 19.2511C66.909 18.6561 66.7054 18.061 66.5019 17.466H60.1599C59.9563 18.061 59.7449 18.6561 59.5257 19.2511C59.3221 19.8462 59.1342 20.4256 58.9619 20.9893H55.1567C55.7674 19.2355 56.3468 17.6147 56.8949 16.1271C57.443 14.6395 57.9754 13.238 58.4921 11.9226C59.0246 10.6072 59.5413 9.36231 60.0424 8.18787C60.5592 6.99777 61.0916 5.83898 61.6397 4.71152H65.1395C65.6719 5.83898 66.1965 6.99777 66.7133 8.18787C67.23 9.36231 67.7468 10.6072 68.2635 11.9226C68.7959 13.238 69.3362 14.6395 69.8843 16.1271C70.4323 17.6147 71.0117 19.2355 71.6224 20.9893H67.6998ZM63.3074 8.39927C63.2291 8.63416 63.1116 8.95517 62.955 9.36231C62.7984 9.76945 62.6184 10.2392 62.4148 10.7716C62.2112 11.3041 61.9842 11.8913 61.7336 12.5333C61.4987 13.1753 61.256 13.8487 61.0055 14.5534H65.6328C65.3822 13.8487 65.1395 13.1753 64.9046 12.5333C64.6697 11.8913 64.4427 11.3041 64.2234 10.7716C64.0199 10.2392 63.8398 9.76945 63.6832 9.36231C63.5266 8.95517 63.4013 8.63416 63.3074 8.39927Z" fill="white"/>
<path d="M77.3937 18.0062C77.566 18.0219 77.7617 18.0375 77.9809 18.0532C78.2158 18.0532 78.4899 18.0532 78.803 18.0532C80.6352 18.0532 81.9897 17.5912 82.8666 16.6674C83.7592 15.7435 84.2055 14.4672 84.2055 12.8387C84.2055 11.1318 83.7827 9.83992 82.9371 8.963C82.0915 8.08608 80.7526 7.64763 78.9205 7.64763C78.6699 7.64763 78.4116 7.65545 78.1454 7.67111C77.8792 7.67111 77.6286 7.68677 77.3937 7.71809V18.0062ZM87.9872 12.8387C87.9872 14.248 87.768 15.4773 87.3295 16.5264C86.8911 17.5756 86.2647 18.4447 85.4504 19.1337C84.6518 19.8227 83.6731 20.3394 82.5143 20.684C81.3555 21.0285 80.0558 21.2007 78.6151 21.2007C77.9574 21.2007 77.1901 21.1694 76.3132 21.1068C75.4363 21.0598 74.5751 20.9502 73.7295 20.7779V4.92292C74.5751 4.76632 75.452 4.66454 76.3602 4.61756C77.2841 4.55492 78.0749 4.5236 78.7326 4.5236C80.1263 4.5236 81.3868 4.6802 82.5143 4.99338C83.6574 5.30657 84.6361 5.79983 85.4504 6.47318C86.2647 7.14653 86.8911 8.00779 87.3295 9.05696C87.768 10.1061 87.9872 11.3667 87.9872 12.8387Z" fill="white"/>
<path d="M107.59 20.9893C107.417 20.4256 107.222 19.8462 107.002 19.2511C106.799 18.6561 106.595 18.061 106.392 17.466H100.05C99.8461 18.061 99.6347 18.6561 99.4155 19.2511C99.2119 19.8462 99.024 20.4256 98.8517 20.9893H95.0465C95.6572 19.2355 96.2366 17.6147 96.7847 16.1271C97.3328 14.6395 97.8652 13.238 98.382 11.9226C98.9144 10.6072 99.4311 9.36231 99.9322 8.18787C100.449 6.99777 100.981 5.83898 101.529 4.71152H105.029C105.562 5.83898 106.086 6.99777 106.603 8.18787C107.12 9.36231 107.637 10.6072 108.153 11.9226C108.686 13.238 109.226 14.6395 109.774 16.1271C110.322 17.6147 110.902 19.2355 111.512 20.9893H107.59ZM103.197 8.39927C103.119 8.63416 103.001 8.95517 102.845 9.36231C102.688 9.76945 102.508 10.2392 102.305 10.7716C102.101 11.3041 101.874 11.8913 101.623 12.5333C101.389 13.1753 101.146 13.8487 100.895 14.5534H105.523C105.272 13.8487 105.029 13.1753 104.794 12.5333C104.56 11.8913 104.332 11.3041 104.113 10.7716C103.91 10.2392 103.73 9.76945 103.573 9.36231C103.416 8.95517 103.291 8.63416 103.197 8.39927Z" fill="white"/>
<path d="M120.445 21.3182C117.799 21.3182 115.779 20.5822 114.385 19.1102C113.007 17.6382 112.318 15.5477 112.318 12.8387C112.318 11.492 112.53 10.294 112.952 9.24487C113.375 8.18004 113.955 7.28746 114.691 6.56714C115.427 5.83115 116.303 5.27525 117.321 4.89943C118.339 4.5236 119.443 4.33569 120.633 4.33569C121.322 4.33569 121.949 4.3905 122.512 4.50012C123.076 4.59407 123.569 4.71152 123.992 4.85245C124.415 4.97772 124.767 5.11083 125.049 5.25176C125.331 5.39269 125.535 5.50231 125.66 5.5806L124.603 8.5402C124.102 8.27399 123.515 8.04694 122.841 7.85903C122.184 7.67111 121.432 7.57716 120.586 7.57716C120.023 7.57716 119.467 7.67111 118.919 7.85903C118.386 8.04694 117.909 8.35229 117.486 8.77509C117.079 9.18223 116.75 9.71465 116.499 10.3723C116.249 11.03 116.123 11.8286 116.123 12.7682C116.123 13.5198 116.202 14.2245 116.358 14.8822C116.531 15.5242 116.797 16.0801 117.157 16.5499C117.533 17.0197 118.018 17.3955 118.613 17.6774C119.208 17.9436 119.929 18.0767 120.774 18.0767C121.307 18.0767 121.784 18.0454 122.207 17.9827C122.63 17.9201 123.006 17.8496 123.334 17.7713C123.663 17.6774 123.953 17.5756 124.204 17.466C124.454 17.3564 124.681 17.2546 124.885 17.1606L125.895 20.0967C125.378 20.4099 124.65 20.6918 123.71 20.9423C122.771 21.1929 121.682 21.3182 120.445 21.3182Z" fill="white"/>
<path d="M135.08 21.3182C132.434 21.3182 130.414 20.5822 129.02 19.1102C127.642 17.6382 126.953 15.5477 126.953 12.8387C126.953 11.492 127.164 10.294 127.587 9.24487C128.01 8.18004 128.589 7.28746 129.325 6.56714C130.061 5.83115 130.938 5.27525 131.956 4.89943C132.974 4.5236 134.078 4.33569 135.268 4.33569C135.957 4.33569 136.583 4.3905 137.147 4.50012C137.711 4.59407 138.204 4.71152 138.627 4.85245C139.05 4.97772 139.402 5.11083 139.684 5.25176C139.966 5.39269 140.169 5.50231 140.295 5.5806L139.238 8.5402C138.736 8.27399 138.149 8.04694 137.476 7.85903C136.818 7.67111 136.067 7.57716 135.221 7.57716C134.657 7.57716 134.101 7.67111 133.553 7.85903C133.021 8.04694 132.543 8.35229 132.12 8.77509C131.713 9.18223 131.384 9.71465 131.134 10.3723C130.883 11.03 130.758 11.8286 130.758 12.7682C130.758 13.5198 130.836 14.2245 130.993 14.8822C131.165 15.5242 131.431 16.0801 131.792 16.5499C132.167 17.0197 132.653 17.3955 133.248 17.6774C133.843 17.9436 134.563 18.0767 135.409 18.0767C135.941 18.0767 136.419 18.0454 136.842 17.9827C137.264 17.9201 137.64 17.8496 137.969 17.7713C138.298 17.6774 138.588 17.5756 138.838 17.466C139.089 17.3564 139.316 17.2546 139.519 17.1606L140.529 20.0967C140.013 20.4099 139.285 20.6918 138.345 20.9423C137.405 21.1929 136.317 21.3182 135.08 21.3182Z" fill="white"/>
<path d="M142.889 20.9893V4.71152H153.881V7.78856H146.553V10.983H153.059V13.9896H146.553V17.9123H154.422V20.9893H142.889Z" fill="white"/>
<path d="M161.573 18.1941C162.089 18.1941 162.512 18.155 162.841 18.0767C163.186 17.9827 163.46 17.8653 163.663 17.7244C163.867 17.5678 164.008 17.3877 164.086 17.1841C164.164 16.9805 164.203 16.7535 164.203 16.5029C164.203 15.9705 163.953 15.5321 163.452 15.1876C162.951 14.8274 162.089 14.4437 160.868 14.0366C160.336 13.8487 159.803 13.6373 159.271 13.4024C158.738 13.1519 158.261 12.8465 157.838 12.4863C157.415 12.1105 157.071 11.6642 156.804 11.1475C156.538 10.6151 156.405 9.97302 156.405 9.22138C156.405 8.46974 156.546 7.79639 156.828 7.20134C157.11 6.59063 157.509 6.07387 158.026 5.65107C158.543 5.22827 159.169 4.90726 159.905 4.68803C160.641 4.45314 161.471 4.33569 162.395 4.33569C163.491 4.33569 164.438 4.45314 165.237 4.68803C166.036 4.92292 166.693 5.18129 167.21 5.46316L166.153 8.35229C165.699 8.1174 165.19 7.91383 164.626 7.74158C164.078 7.55367 163.413 7.45971 162.63 7.45971C161.753 7.45971 161.119 7.58499 160.727 7.83554C160.351 8.07043 160.163 8.43842 160.163 8.93951C160.163 9.23704 160.234 9.48759 160.375 9.69116C160.516 9.89473 160.711 10.0826 160.962 10.2549C161.228 10.4115 161.526 10.5602 161.855 10.7012C162.199 10.8265 162.575 10.9596 162.982 11.1005C163.828 11.4137 164.564 11.7269 165.19 12.04C165.816 12.3376 166.333 12.6899 166.74 13.097C167.163 13.5042 167.476 13.9818 167.68 14.5299C167.883 15.0779 167.985 15.7435 167.985 16.5264C167.985 18.0454 167.453 19.2276 166.388 20.0732C165.323 20.9032 163.718 21.3182 161.573 21.3182C160.852 21.3182 160.203 21.2712 159.623 21.1772C159.044 21.0989 158.527 20.9971 158.073 20.8719C157.634 20.7466 157.251 20.6135 156.922 20.4726C156.609 20.3316 156.343 20.1985 156.123 20.0732L157.157 17.1606C157.642 17.4268 158.237 17.6695 158.942 17.8888C159.662 18.0923 160.539 18.1941 161.573 18.1941Z" fill="white"/>
<path d="M175.244 18.1941C175.761 18.1941 176.184 18.155 176.512 18.0767C176.857 17.9827 177.131 17.8653 177.334 17.7244C177.538 17.5678 177.679 17.3877 177.757 17.1841C177.836 16.9805 177.875 16.7535 177.875 16.5029C177.875 15.9705 177.624 15.5321 177.123 15.1876C176.622 14.8274 175.761 14.4437 174.539 14.0366C174.007 13.8487 173.474 13.6373 172.942 13.4024C172.41 13.1519 171.932 12.8465 171.509 12.4863C171.086 12.1105 170.742 11.6642 170.476 11.1475C170.21 10.6151 170.076 9.97302 170.076 9.22138C170.076 8.46974 170.217 7.79639 170.499 7.20134C170.781 6.59063 171.18 6.07387 171.697 5.65107C172.214 5.22827 172.84 4.90726 173.576 4.68803C174.312 4.45314 175.142 4.33569 176.066 4.33569C177.162 4.33569 178.11 4.45314 178.908 4.68803C179.707 4.92292 180.365 5.18129 180.881 5.46316L179.824 8.35229C179.37 8.1174 178.861 7.91383 178.298 7.74158C177.749 7.55367 177.084 7.45971 176.301 7.45971C175.424 7.45971 174.79 7.58499 174.398 7.83554C174.023 8.07043 173.835 8.43842 173.835 8.93951C173.835 9.23704 173.905 9.48759 174.046 9.69116C174.187 9.89473 174.383 10.0826 174.633 10.2549C174.899 10.4115 175.197 10.5602 175.526 10.7012C175.87 10.8265 176.246 10.9596 176.653 11.1005C177.499 11.4137 178.235 11.7269 178.861 12.04C179.488 12.3376 180.004 12.6899 180.412 13.097C180.834 13.5042 181.147 13.9818 181.351 14.5299C181.555 15.0779 181.656 15.7435 181.656 16.5264C181.656 18.0454 181.124 19.2276 180.059 20.0732C178.994 20.9032 177.389 21.3182 175.244 21.3182C174.524 21.3182 173.874 21.2712 173.294 21.1772C172.715 21.0989 172.198 20.9971 171.744 20.8719C171.306 20.7466 170.922 20.6135 170.593 20.4726C170.28 20.3316 170.014 20.1985 169.795 20.0732L170.828 17.1606C171.313 17.4268 171.909 17.6695 172.613 17.8888C173.334 18.0923 174.21 18.1941 175.244 18.1941Z" fill="white"/>
<defs>
<linearGradient id="paint0_linear_6_284" x1="2.4505" y1="13.0234" x2="22.8569" y2="13.0234" gradientUnits="userSpaceOnUse">
<stop stop-color="#8E61F6"/>
<stop offset="1" stop-color="#F18D17"/>
</linearGradient>
</defs>
</svg>
