<?xml version="1.0" encoding="utf-8"?>
<!-- Generator: Adobe Illustrator 27.2.0, SVG Export Plug-In . SVG Version: 6.00 Build 0)  -->
<svg version="1.1" id="Layer_1" xmlns="http://www.w3.org/2000/svg" xmlns:xlink="http://www.w3.org/1999/xlink" x="0px" y="0px"
	 viewBox="0 0 512 512" style="enable-background:new 0 0 512 512;" xml:space="preserve">
<style type="text/css">
	.st0{fill:white;}
</style>
<g>
	<path class="st0" d="M326.5,204.8c24.74,0,44.8,20.06,44.8,44.8v121.57c0,63.64-51.59,115.23-115.23,115.23
		c-63.64,0-115.23-51.59-115.23-115.23V249.6c0-24.74,20.06-44.8,44.8-44.8H326.5z M131.36,204.78
		c-8.95,10.82-14.72,24.36-15.89,39.2l-0.22,5.62v121.57c0,21.67,4.9,42.2,13.64,60.54c-8.42,2.28-17.3,3.48-26.46,3.48
		C45.86,435.2,0,389.34,0,332.77V249.6c0-23.51,18.1-42.78,41.13-44.65l3.67-0.15L131.36,204.78z M380.79,204.78l86.41,0.02
		c24.74,0,44.8,20.06,44.8,44.8v83.2c0,56.55-45.85,102.4-102.4,102.4c-9.12,0-17.97-1.19-26.39-3.43
		c7.7-16.07,12.41-33.81,13.47-52.52l0.23-8.07V249.6C396.9,232.57,390.86,216.95,380.79,204.78z M256,25.6
		c42.42,0,76.8,34.39,76.8,76.8c0,42.42-34.38,76.8-76.8,76.8s-76.8-34.38-76.8-76.8C179.2,59.99,213.58,25.6,256,25.6z M422.4,51.2
		c35.35,0,64,28.65,64,64s-28.65,64-64,64s-64-28.65-64-64S387.05,51.2,422.4,51.2z M89.6,51.2c35.35,0,64,28.65,64,64
		s-28.65,64-64,64s-64-28.65-64-64S54.25,51.2,89.6,51.2z"/>
</g>
</svg>
